<?xml version="1.0" encoding="utf-8"?>
<!-- Generator: Adobe Illustrator 28.2.0, SVG Export Plug-In . SVG Version: 6.00 Build 0)  -->
<svg version="1.1" id="Layer_1" xmlns="http://www.w3.org/2000/svg" xmlns:xlink="http://www.w3.org/1999/xlink" x="0px" y="0px"
	 viewBox="0 0 348 149" style="enable-background:new 0 0 348 149;" xml:space="preserve">
<style type="text/css">
	.st0{fill:#009245;}
	.st1{font-family:'Futura-Bold';}
	.st2{font-size:63.7921px;}
	.st3{letter-spacing:-4;}
	.st4{opacity:0.28;}
	.st5{fill:#FFFFFF;}
</style>
<text transform="matrix(1 0 0 1 1.6792 96.9243)" class="st0 st1 st2 st3">Veterinário</text>
<g class="st4">
	<rect x="276" y="94" class="st0" width="72" height="34"/>
	<g>
		<path class="st0" d="M288.83,119.89h-4.69v-17.79h7.46c2.03,0,3.58,0.52,4.65,1.56c1.08,1.04,1.61,2.5,1.61,4.39
			c0,1.89-0.54,3.35-1.61,4.39c-1.08,1.04-2.63,1.56-4.65,1.56h-2.77V119.89z M288.83,110.27h1.55c1.72,0,2.58-0.74,2.58-2.22
			c0-1.48-0.86-2.22-2.58-2.22h-1.55V110.27z"/>
		<path class="st0" d="M317.2,119.89h-5.84l-4.47-6.84v6.84h-4.69v-17.79h7.3c1,0,1.88,0.15,2.63,0.44
			c0.75,0.29,1.37,0.69,1.85,1.19c0.49,0.5,0.85,1.08,1.1,1.75c0.25,0.66,0.37,1.37,0.37,2.12c0,1.35-0.33,2.45-0.99,3.29
			c-0.66,0.84-1.64,1.41-2.93,1.71L317.2,119.89z M306.89,110.06h0.88c0.92,0,1.63-0.19,2.13-0.57s0.74-0.92,0.74-1.63
			s-0.25-1.25-0.74-1.63s-1.2-0.57-2.13-0.57h-0.88V110.06z"/>
		<path class="st0" d="M319.85,111c0-1.32,0.25-2.55,0.74-3.69s1.18-2.13,2.06-2.98c0.88-0.85,1.93-1.51,3.15-1.99
			c1.22-0.48,2.56-0.72,4.03-0.72c1.45,0,2.79,0.24,4.02,0.72c1.23,0.48,2.28,1.14,3.17,1.99c0.88,0.85,1.57,1.84,2.07,2.98
			s0.74,2.37,0.74,3.69s-0.25,2.55-0.74,3.69c-0.49,1.14-1.18,2.13-2.07,2.98c-0.89,0.85-1.94,1.51-3.17,1.99
			c-1.23,0.48-2.57,0.72-4.02,0.72c-1.47,0-2.81-0.24-4.03-0.72c-1.22-0.48-2.27-1.14-3.15-1.99c-0.88-0.85-1.56-1.84-2.06-2.98
			C320.1,113.55,319.85,112.32,319.85,111z M324.76,111c0,0.71,0.14,1.36,0.41,1.96c0.27,0.6,0.64,1.12,1.1,1.56
			c0.46,0.44,1,0.78,1.61,1.03c0.61,0.24,1.26,0.37,1.95,0.37s1.34-0.12,1.95-0.37c0.61-0.24,1.16-0.59,1.63-1.03
			c0.47-0.44,0.84-0.96,1.11-1.56c0.27-0.6,0.41-1.25,0.41-1.96s-0.14-1.36-0.41-1.96c-0.27-0.6-0.64-1.12-1.11-1.56
			c-0.47-0.44-1.01-0.78-1.63-1.03c-0.61-0.24-1.26-0.37-1.95-0.37s-1.34,0.12-1.95,0.37c-0.61,0.24-1.15,0.59-1.61,1.03
			c-0.46,0.44-0.83,0.96-1.1,1.56C324.89,109.64,324.76,110.29,324.76,111z"/>
	</g>
</g>
<g>
	<rect x="259.5" y="91.84" class="st0" width="88.5" height="41.66"/>
	<rect x="261" y="90.34" class="st5" width="87" height="41.66"/>
	<g>
		<path d="M276.5,122.07h-5.67v-21.79h9.02c2.45,0,4.32,0.64,5.62,1.91c1.3,1.27,1.95,3.06,1.95,5.38c0,2.31-0.65,4.1-1.95,5.38
			c-1.3,1.27-3.17,1.91-5.62,1.91h-3.35V122.07z M276.5,110.27h1.88c2.08,0,3.12-0.91,3.12-2.72c0-1.81-1.04-2.72-3.12-2.72h-1.88
			V110.27z"/>
		<path d="M310.78,122.07h-7.05l-5.4-8.38v8.38h-5.67v-21.79h8.82c1.21,0,2.27,0.18,3.18,0.53c0.91,0.36,1.65,0.84,2.24,1.46
			c0.59,0.62,1.03,1.33,1.33,2.14c0.3,0.81,0.45,1.68,0.45,2.6c0,1.66-0.4,3-1.2,4.03c-0.8,1.03-1.98,1.73-3.54,2.1L310.78,122.07z
			 M298.32,110.01h1.07c1.12,0,1.98-0.23,2.57-0.69c0.6-0.46,0.9-1.13,0.9-1.99c0-0.87-0.3-1.53-0.9-1.99
			c-0.6-0.46-1.46-0.69-2.57-0.69h-1.07V110.01z"/>
		<path d="M313.99,111.17c0-1.62,0.3-3.13,0.9-4.52c0.6-1.4,1.43-2.62,2.49-3.66c1.06-1.04,2.33-1.85,3.8-2.44
			c1.47-0.59,3.1-0.88,4.87-0.88c1.75,0,3.37,0.29,4.86,0.88c1.48,0.59,2.76,1.4,3.83,2.44c1.07,1.04,1.9,2.26,2.5,3.66
			c0.6,1.4,0.9,2.9,0.9,4.52s-0.3,3.13-0.9,4.52c-0.6,1.4-1.43,2.62-2.5,3.66c-1.07,1.04-2.35,1.85-3.83,2.44
			c-1.48,0.59-3.1,0.88-4.86,0.88c-1.77,0-3.4-0.29-4.87-0.88c-1.47-0.59-2.74-1.4-3.8-2.44c-1.06-1.04-1.89-2.26-2.49-3.66
			C314.29,114.3,313.99,112.79,313.99,111.17z M319.91,111.17c0,0.87,0.16,1.67,0.49,2.4c0.33,0.73,0.77,1.37,1.33,1.91
			c0.56,0.54,1.21,0.96,1.95,1.26c0.74,0.3,1.53,0.45,2.36,0.45s1.61-0.15,2.36-0.45c0.74-0.3,1.4-0.72,1.97-1.26
			c0.57-0.54,1.02-1.18,1.34-1.91c0.33-0.73,0.49-1.53,0.49-2.4s-0.16-1.67-0.49-2.4c-0.33-0.73-0.78-1.37-1.34-1.91
			c-0.57-0.54-1.22-0.96-1.97-1.26s-1.53-0.45-2.36-0.45s-1.61,0.15-2.36,0.45s-1.39,0.72-1.95,1.26c-0.56,0.54-1,1.18-1.33,1.91
			C320.08,109.5,319.91,110.3,319.91,111.17z"/>
	</g>
</g>
</svg>
